<svg width="24" height="20" viewBox="0 0 24 20" fill="none" xmlns="http://www.w3.org/2000/svg">
<path d="M9.75 9C12.2353 9 14.25 6.98528 14.25 4.5C14.25 2.01472 12.2353 0 9.75 0C7.26472 0 5.25 2.01472 5.25 4.5C5.25 6.98528 7.26472 9 9.75 9Z" fill="#313945"/>
<path d="M10.5038 10.1475C10.2563 10.1363 10.0088 10.125 9.75 10.125C7.0275 10.125 4.485 10.8788 2.31375 12.1725C1.32375 12.7575 0.75 13.86 0.75 15.0188V18H11.1675C10.3729 16.8665 9.89286 15.5427 9.77627 14.1633C9.65968 12.7839 9.91069 11.3983 10.5038 10.1475V10.1475ZM21.8438 13.5C21.8438 13.2525 21.81 13.0275 21.7763 12.7913L23.0587 11.655L21.9337 9.70875L20.3025 10.26C19.9425 9.95625 19.5375 9.72 19.0875 9.55125L18.75 7.875H16.5L16.1625 9.55125C15.7125 9.72 15.3075 9.95625 14.9475 10.26L13.3163 9.70875L12.1913 11.655L13.4738 12.7913C13.44 13.0275 13.4062 13.2525 13.4062 13.5C13.4062 13.7475 13.44 13.9725 13.4738 14.2087L12.1913 15.345L13.3163 17.2913L14.9475 16.74C15.3075 17.0438 15.7125 17.28 16.1625 17.4488L16.5 19.125H18.75L19.0875 17.4488C19.5375 17.28 19.9425 17.0438 20.3025 16.74L21.9337 17.2913L23.0587 15.345L21.7763 14.2087C21.81 13.9725 21.8438 13.7475 21.8438 13.5V13.5ZM17.625 15.75C16.3875 15.75 15.375 14.7375 15.375 13.5C15.375 12.2625 16.3875 11.25 17.625 11.25C18.8625 11.25 19.875 12.2625 19.875 13.5C19.875 14.7375 18.8625 15.75 17.625 15.75Z" fill="#313945"/>
</svg>
