<svg width="23" height="23" viewBox="0 0 23 23" fill="none" xmlns="http://www.w3.org/2000/svg">
<path d="M14.5875 1.11253C14.172 0.731585 13.6254 0.525764 13.0618 0.537991C12.4982 0.550217 11.9611 0.779547 11.5625 1.17815L1.22501 11.5172C1.02186 11.7203 0.86071 11.9615 0.750763 12.2269C0.640817 12.4923 0.584229 12.7768 0.584229 13.0641C0.584229 13.3514 0.640817 13.6358 0.750763 13.9013C0.86071 14.1667 1.02186 14.4078 1.22501 14.611L2.67189 16.0563C3.21407 16.6 3.99376 16.4688 4.45314 16.1625C4.7837 15.9428 5.18013 15.8443 5.57509 15.8837C5.97005 15.9231 6.33921 16.0979 6.61988 16.3786C6.90055 16.6593 7.07542 17.0284 7.11481 17.4234C7.15419 17.8184 7.05566 18.2148 6.83595 18.5453C6.53126 19.0047 6.40001 19.786 6.9422 20.3282L8.35626 21.7407C8.5633 21.9479 8.80986 22.1115 9.08132 22.2216C9.35277 22.3318 9.64358 22.3863 9.9365 22.3819C10.2294 22.3775 10.5185 22.3144 10.7865 22.1962C11.0546 22.078 11.2961 21.9071 11.4969 21.6938L21.8063 10.7375C22.0047 10.5266 22.1593 10.2784 22.2611 10.0073C22.3629 9.73624 22.4099 9.44762 22.3993 9.15823C22.3887 8.86883 22.3207 8.58443 22.1993 8.32151C22.078 8.05858 21.9056 7.82238 21.6922 7.62659L20.3078 6.35628C20.1554 6.2203 19.9734 6.1217 19.7762 6.06827C19.579 6.01484 19.3721 6.00806 19.1719 6.04847C18.8172 6.11097 18.4813 6.29847 18.2375 6.56409C18.085 6.7305 17.9011 6.86523 17.6965 6.96059C17.4919 7.05595 17.2705 7.11007 17.0449 7.11987C16.8194 7.12966 16.5941 7.09493 16.382 7.01767C16.1698 6.94041 15.975 6.82212 15.8086 6.66956C15.4725 6.36145 15.2726 5.93246 15.2528 5.47695C15.243 5.2514 15.2778 5.02614 15.355 4.81401C15.4323 4.60189 15.5506 4.40706 15.7031 4.24065C15.9485 3.97815 16.1063 3.62659 16.1391 3.26722C16.1617 3.06443 16.1367 2.85916 16.0662 2.66769C15.9957 2.47622 15.8815 2.3038 15.7328 2.16409L14.5875 1.11253Z" fill="#4DAEFF"/>
</svg>
