<svg width="12" height="13" viewBox="0 0 12 13" fill="none" xmlns="http://www.w3.org/2000/svg">
<path d="M3.85999 11.392C4.74852 12.1107 5.85719 12.5019 6.99999 12.5C7.75399 12.5 8.46999 12.333 9.11299 12.033L11.402 12.49C11.4826 12.5061 11.566 12.502 11.6447 12.4781C11.7234 12.4542 11.795 12.4113 11.8532 12.3532C11.9113 12.295 11.9542 12.2234 11.9781 12.1447C12.002 12.066 12.006 11.9827 11.99 11.902L11.533 9.614C11.833 8.971 12 8.254 12 7.5C12.0016 6.35755 11.6104 5.24927 10.892 4.361C11.0343 5.10134 11.0367 5.86178 10.899 6.603C11.1087 7.51931 10.9901 8.48014 10.564 9.318C10.5126 9.41848 10.4968 9.53337 10.519 9.644L10.863 11.363L9.14299 11.019C9.03267 10.997 8.91817 11.0129 8.81799 11.064C7.97997 11.4908 7.01859 11.6093 6.10199 11.399C5.36078 11.5368 4.60031 11.5344 3.85999 11.392ZM4.99999 0.5C4.15916 0.499762 3.33184 0.711573 2.59458 1.11584C1.85731 1.52011 1.2339 2.10378 0.782018 2.81286C0.330132 3.52194 0.0643654 4.33353 0.0093003 5.17255C-0.0457648 6.01158 0.111651 6.85094 0.466985 7.613L0.00998528 9.902C-0.00607151 9.98266 -0.00198553 10.066 0.0218809 10.1447C0.0457474 10.2234 0.0886575 10.295 0.146809 10.3532C0.204961 10.4113 0.276558 10.4542 0.355258 10.4781C0.433958 10.502 0.517329 10.5061 0.597985 10.49L2.88599 10.033C3.56431 10.3487 4.30484 10.5082 5.053 10.4997C5.80116 10.4911 6.53786 10.3148 7.2088 9.98366C7.87974 9.65252 8.46782 9.17503 8.92967 8.58639C9.39152 7.99774 9.71537 7.31294 9.87735 6.58248C10.0393 5.85202 10.0353 5.09452 9.8656 4.36582C9.69588 3.63711 9.36478 2.95579 8.89672 2.37207C8.42865 1.78836 7.83555 1.31713 7.16114 0.993125C6.48672 0.669122 5.74819 0.500606 4.99999 0.5Z" fill="white"/>
</svg>
