<svg width="20" height="21" viewBox="0 0 20 21" fill="none" xmlns="http://www.w3.org/2000/svg">
<path d="M8.99998 0.399902C7.72694 0.399902 6.50604 0.905615 5.60586 1.80579C4.70569 2.70596 4.19998 3.92686 4.19998 5.1999C4.19998 6.47294 4.70569 7.69384 5.60586 8.59402C6.50604 9.49419 7.72694 9.9999 8.99998 9.9999C10.273 9.9999 11.4939 9.49419 12.3941 8.59402C13.2943 7.69384 13.8 6.47294 13.8 5.1999C13.8 3.92686 13.2943 2.70596 12.3941 1.80579C11.4939 0.905615 10.273 0.399902 8.99998 0.399902ZM3.01078 11.1999C2.69474 11.1986 2.38156 11.2598 2.08921 11.3798C1.79685 11.4998 1.53106 11.6764 1.30709 11.8994C1.08311 12.1223 0.905357 12.3873 0.784015 12.6792C0.662673 12.971 0.600131 13.2839 0.599976 13.5999C0.599976 15.6291 1.59958 17.1591 3.16198 18.1563C4.42198 18.9591 6.03958 19.4151 7.80598 19.5543C7.81798 19.4319 7.83718 19.3083 7.86838 19.1835L8.31838 17.3859C8.48635 16.7114 8.83482 16.0954 9.32638 15.6039L13.7304 11.1999H3.01198H3.01078ZM10.1748 16.4523L15.9708 10.6563C16.3918 10.2354 16.9628 9.99901 17.5582 9.99912C18.1536 9.99923 18.7245 10.2358 19.1454 10.6569C19.5663 11.078 19.8027 11.649 19.8026 12.2443C19.8024 12.8397 19.5658 13.4106 19.1448 13.8315L13.3488 19.6263C13.0111 19.9641 12.5881 20.2038 12.1248 20.3199L10.3272 20.7687C10.1484 20.8132 9.96121 20.8108 9.78369 20.7616C9.60617 20.7124 9.4444 20.6181 9.31408 20.4879C9.18376 20.3577 9.08934 20.1961 9.03998 20.0186C8.99062 19.8411 8.988 19.6539 9.03238 19.4751L9.48238 17.6775C9.59747 17.2138 9.83735 16.7905 10.176 16.4535L10.1748 16.4523Z" fill="#95C900"/>
</svg>
