<svg width="29" height="26" viewBox="0 0 29 26" fill="none" xmlns="http://www.w3.org/2000/svg">
<path d="M14.0227 8.91855L16.2296 9.50508C16.3045 9.52276 16.3716 9.56491 16.4203 9.62499C16.4691 9.68507 16.4968 9.7597 16.4992 9.8373C16.4992 10.026 16.3329 10.1818 16.1283 10.1818H14.6806C14.5246 10.1814 14.3702 10.1507 14.2256 10.0916C14.0125 10.0014 13.7669 10.0219 13.6034 10.1736L12.8308 10.8914C12.795 10.923 12.7642 10.9597 12.7393 11.0005C12.7074 11.0533 12.6862 11.1119 12.6768 11.173C12.6675 11.2341 12.6702 11.2964 12.6849 11.3564C12.6996 11.4164 12.7259 11.4729 12.7623 11.5227C12.7987 11.5724 12.8445 11.6143 12.8971 11.6461C13.3249 11.9051 13.804 12.0661 14.3004 12.1178V12.8438C14.3004 13.2047 14.6188 13.5 15.0068 13.5H15.7131C16.1015 13.5 16.4199 13.2047 16.4199 12.8438V12.1219C17.759 11.9742 18.7719 10.8504 18.5955 9.53789C18.4674 8.59453 17.6821 7.84395 16.7021 7.58145L14.4952 6.99492C14.4202 6.97724 14.3532 6.93509 14.3044 6.87501C14.2557 6.81493 14.228 6.7403 14.2256 6.6627C14.2256 6.47402 14.3919 6.31816 14.5965 6.31816H16.0441C16.2007 6.31841 16.3557 6.34904 16.5008 6.4084C16.7135 6.49863 16.9595 6.47812 17.123 6.32637L17.8956 5.60859C17.9302 5.57772 17.9599 5.54177 17.9839 5.50195C18.016 5.4492 18.0375 5.39053 18.0471 5.32935C18.0566 5.26817 18.0541 5.20568 18.0396 5.1455C18.025 5.08532 17.9988 5.02864 17.9625 4.97873C17.9261 4.92882 17.8803 4.88668 17.8277 4.85473C17.3997 4.59573 16.9205 4.43471 16.4239 4.38305V3.65625C16.4239 3.29531 16.1059 3 15.7176 3H15.0112C14.6229 3 14.3049 3.29531 14.3049 3.65625V4.37812C12.9674 4.52578 11.9524 5.64961 12.1289 6.96211C12.2566 7.90547 13.0443 8.65605 14.0227 8.91855ZM25.9867 16.4572C25.5069 16.0184 24.7587 16.0471 24.2544 16.4572L20.497 19.4883C20.0357 19.8615 19.4617 20.0641 18.8704 20.0625H14.0609C13.8883 20.0625 13.7228 19.9934 13.6008 19.8703C13.4788 19.7472 13.4103 19.5803 13.4103 19.4062C13.4103 19.2322 13.4788 19.0653 13.6008 18.9422C13.7228 18.8191 13.8883 18.75 14.0609 18.75H17.2446C17.8911 18.75 18.4934 18.3029 18.5967 17.659C18.6094 17.585 18.6157 17.5101 18.6154 17.435C18.6147 17.0874 18.4774 16.7542 18.2334 16.5086C17.9894 16.2629 17.6588 16.125 17.3141 16.125H10.8077C9.71039 16.1253 8.64653 16.506 7.79441 17.2033L5.90349 18.75H3.65064C3.47808 18.75 3.31259 18.8191 3.19057 18.9422C3.06855 19.0653 3 19.2322 3 19.4062V23.3438C3 23.5178 3.06855 23.6847 3.19057 23.8078C3.31259 23.9309 3.47808 24 3.65064 24H18.1587C18.7498 24.0005 19.3235 23.798 19.7853 23.4258L25.9351 18.4629C26.083 18.3435 26.2034 18.1931 26.2876 18.022C26.3719 17.8509 26.4182 17.6633 26.4231 17.4723C26.4281 17.2813 26.3917 17.0915 26.3163 16.9162C26.241 16.7408 26.1287 16.5842 25.9872 16.4572H25.9867Z" fill="#FF629A"/>
</svg>
