<svg width="20" height="15" viewBox="0 0 20 15" fill="none" xmlns="http://www.w3.org/2000/svg">
<path d="M10 0C4.486 0 3.48971e-06 4.486 3.48971e-06 10C-0.00129293 11.5434 0.358639 13.0656 1.051 14.445C1.221 14.785 1.567 15 1.946 15H18.053C18.432 15 18.779 14.785 18.949 14.445C19.6414 13.0656 20.0013 11.5434 20 10C20 4.486 15.514 0 10 0ZM17.41 13H2.59C2.19924 12.0481 1.99879 11.0289 2 10C2 5.589 5.589 2 10 2C14.411 2 18 5.589 18 10C18.0012 11.0289 17.8008 12.0481 17.41 13Z" fill="#313945"/>
</svg>
