<svg width="17" height="17" viewBox="0 0 17 17" fill="none" xmlns="http://www.w3.org/2000/svg">
<path d="M0 2.25C0 1.65326 0.237053 1.08097 0.65901 0.65901C1.08097 0.237053 1.65326 0 2.25 0H10.75C11.3467 0 11.919 0.237053 12.341 0.65901C12.7629 1.08097 13 1.65326 13 2.25V10H16.5V13.25C16.5 14.112 16.1576 14.9386 15.5481 15.5481C14.9386 16.1576 14.112 16.5 13.25 16.5H2.25C1.65326 16.5 1.08097 16.2629 0.65901 15.841C0.237053 15.419 0 14.8467 0 14.25V2.25ZM13 15H13.25C13.7141 15 14.1592 14.8156 14.4874 14.4874C14.8156 14.1592 15 13.7141 15 13.25V11.5H13V15ZM3.75 4C3.55109 4 3.36032 4.07902 3.21967 4.21967C3.07902 4.36032 3 4.55109 3 4.75C3 4.94891 3.07902 5.13968 3.21967 5.28033C3.36032 5.42098 3.55109 5.5 3.75 5.5H9.25C9.44891 5.5 9.63968 5.42098 9.78033 5.28033C9.92098 5.13968 10 4.94891 10 4.75C10 4.55109 9.92098 4.36032 9.78033 4.21967C9.63968 4.07902 9.44891 4 9.25 4H3.75ZM3.75 7.5C3.55109 7.5 3.36032 7.57902 3.21967 7.71967C3.07902 7.86032 3 8.05109 3 8.25C3 8.44891 3.07902 8.63968 3.21967 8.78033C3.36032 8.92098 3.55109 9 3.75 9H9.25C9.44891 9 9.63968 8.92098 9.78033 8.78033C9.92098 8.63968 10 8.44891 10 8.25C10 8.05109 9.92098 7.86032 9.78033 7.71967C9.63968 7.57902 9.44891 7.5 9.25 7.5H3.75ZM3.75 11C3.55109 11 3.36032 11.079 3.21967 11.2197C3.07902 11.3603 3 11.5511 3 11.75C3 11.9489 3.07902 12.1397 3.21967 12.2803C3.36032 12.421 3.55109 12.5 3.75 12.5H6.25C6.44891 12.5 6.63968 12.421 6.78033 12.2803C6.92098 12.1397 7 11.9489 7 11.75C7 11.5511 6.92098 11.3603 6.78033 11.2197C6.63968 11.079 6.44891 11 6.25 11H3.75Z" fill="#313945"/>
</svg>
