<svg width="14" height="15" viewBox="0 0 14 15" fill="none" xmlns="http://www.w3.org/2000/svg">
<path d="M8.97599 0.85192C8.71005 0.608117 8.36025 0.476391 7.99955 0.484216C7.63886 0.492041 7.2951 0.638813 7.03999 0.89392L0.423987 7.51092C0.293969 7.64092 0.190833 7.79527 0.120468 7.96513C0.0501023 8.135 0.0138855 8.31706 0.0138855 8.50092C0.0138855 8.68478 0.0501023 8.86684 0.120468 9.03671C0.190833 9.20658 0.293969 9.36092 0.423987 9.49092L1.34999 10.4159C1.69699 10.7639 2.19599 10.6799 2.48999 10.4839C2.70155 10.3433 2.95526 10.2802 3.20804 10.3055C3.46081 10.3307 3.69707 10.4426 3.8767 10.6222C4.05633 10.8018 4.16825 11.0381 4.19346 11.2909C4.21866 11.5436 4.1556 11.7974 4.01499 12.0089C3.81999 12.3029 3.73599 12.8029 4.08299 13.1499L4.98799 14.0539C5.12049 14.1866 5.27829 14.2912 5.45202 14.3617C5.62575 14.4322 5.81187 14.4671 5.99934 14.4643C6.1868 14.4615 6.3718 14.4211 6.54335 14.3454C6.71489 14.2698 6.8695 14.1605 6.99799 14.0239L13.596 7.01192C13.723 6.87695 13.822 6.71811 13.8871 6.5446C13.9523 6.37109 13.9823 6.18638 13.9755 6.00117C13.9687 5.81596 13.9252 5.63394 13.8475 5.46567C13.7699 5.2974 13.6595 5.14622 13.523 5.02092L12.637 4.20792C12.5394 4.1209 12.4229 4.05779 12.2967 4.0236C12.1706 3.9894 12.0381 3.98506 11.91 4.01092C11.683 4.05092 11.468 4.17092 11.312 4.34092C11.2143 4.44742 11.0967 4.53365 10.9657 4.59468C10.8348 4.65571 10.6931 4.69035 10.5487 4.69662C10.4044 4.70289 10.2602 4.68066 10.1244 4.63121C9.98868 4.58176 9.86399 4.50606 9.75749 4.40842C9.5424 4.21123 9.41445 3.93668 9.40179 3.64515C9.39552 3.5008 9.41775 3.35663 9.4672 3.22087C9.51664 3.08511 9.59235 2.96042 9.68999 2.85392C9.84699 2.68592 9.94799 2.46092 9.96899 2.23092C9.98344 2.10113 9.96746 1.96977 9.92234 1.84723C9.87721 1.72468 9.80416 1.61433 9.70899 1.52492L8.97599 0.85192Z" fill="white"/>
</svg>
