<svg width="24" height="24" viewBox="0 0 24 24" fill="none" xmlns="http://www.w3.org/2000/svg">
<path fill-rule="evenodd" clip-rule="evenodd" d="M15.4372 12.4455C15.2386 11.9255 14.8709 11.4753 14.3846 11.1569C13.8983 10.8385 13.3173 10.6675 12.7218 10.6675V10.0009H11.282V10.6675C10.5183 10.6675 9.78585 10.9485 9.24583 11.4486C8.70581 11.9487 8.40243 12.6269 8.40243 13.3342C8.40243 14.0414 8.70581 14.7197 9.24583 15.2198C9.78585 15.7199 10.5183 16.0009 11.282 16.0009V18.6675C10.6557 18.6675 10.1222 18.2975 9.92355 17.7789C9.89407 17.694 9.84652 17.6155 9.7837 17.5479C9.72088 17.4804 9.64407 17.4252 9.55782 17.3856C9.47157 17.3461 9.37762 17.3229 9.28154 17.3176C9.18546 17.3122 9.08919 17.3247 8.99843 17.3544C8.90768 17.3841 8.82427 17.4304 8.75315 17.4904C8.68203 17.5505 8.62464 17.6232 8.58438 17.7041C8.54411 17.7851 8.52179 17.8727 8.51873 17.9618C8.51567 18.0509 8.53193 18.1397 8.56656 18.2229C8.76514 18.7428 9.13289 19.193 9.61918 19.5114C10.1055 19.8299 10.6864 20.0008 11.282 20.0009V20.6675H12.7218V20.0009C13.4855 20.0009 14.2179 19.7199 14.7579 19.2198C15.2979 18.7197 15.6013 18.0414 15.6013 17.3342C15.6013 16.6269 15.2979 15.9487 14.7579 15.4486C14.2179 14.9485 13.4855 14.6675 12.7218 14.6675V12.0009C13.0195 12.0008 13.31 12.0862 13.5531 12.2454C13.7963 12.4045 13.9802 12.6296 14.0795 12.8895C14.143 13.0563 14.2755 13.1928 14.4478 13.269C14.5331 13.3068 14.6256 13.3286 14.72 13.3333C14.8144 13.3379 14.9089 13.3253 14.998 13.2962C15.0872 13.267 15.1693 13.2219 15.2396 13.1634C15.3099 13.1048 15.3671 13.0341 15.4079 12.9551C15.4486 12.8761 15.4722 12.7904 15.4772 12.703C15.4823 12.6156 15.4687 12.5281 15.4372 12.4455V12.4455ZM11.282 12.0009C10.9001 12.0009 10.5339 12.1413 10.2639 12.3914C9.99389 12.6414 9.8422 12.9806 9.8422 13.3342C9.8422 13.6878 9.99389 14.0269 10.2639 14.277C10.5339 14.527 10.9001 14.6675 11.282 14.6675V12.0009ZM12.7218 18.6675C13.1036 18.6675 13.4698 18.527 13.7398 18.277C14.0098 18.0269 14.1615 17.6878 14.1615 17.3342C14.1615 16.9806 14.0098 16.6414 13.7398 16.3914C13.4698 16.1413 13.1036 16.0009 12.7218 16.0009V18.6675Z" fill="#313945"/>
<path fill-rule="evenodd" clip-rule="evenodd" d="M4.19324 1.74748C5.95985 0.946746 8.85812 0 12.0299 0C15.1355 0 17.9575 0.907409 19.7148 1.69747L19.8141 1.74214C20.3439 1.98483 20.7715 2.21418 21.0725 2.4002L18.4132 6.0005C24.5438 11.805 29.2792 24 12.0299 24C-5.21929 24 -0.611289 12.0263 5.57255 6.0005L2.93056 2.4002C3.13429 2.27686 3.39273 2.13351 3.70084 1.9815C3.85346 1.90549 4.01759 1.82749 4.19324 1.74815V1.74748ZM16.7042 5.9525L18.8329 3.07026C16.8532 3.20227 14.4977 3.63297 12.2301 4.24102C10.6103 4.67439 8.81061 4.60838 7.14407 4.32369C6.72411 4.25159 6.30703 4.16575 5.89362 4.06634L7.2758 5.95116C10.2381 6.92791 13.7411 6.92791 16.7042 5.9525V5.9525ZM6.44433 7.08726C9.9106 8.32736 14.0766 8.32736 17.5429 7.08592C18.9897 8.4985 20.2001 10.1038 21.1337 11.8483C22.1069 13.6871 22.6368 15.5253 22.5504 17.1094C22.4669 18.6382 21.8175 19.9443 20.3346 20.9151C18.789 21.9265 16.1895 22.6666 12.0292 22.6666C7.86467 22.6666 5.25292 21.9392 3.69292 20.9391C2.19915 19.9803 1.54334 18.6922 1.45047 17.1841C1.35329 15.6173 1.8716 13.7885 2.84129 11.937C3.76635 10.1715 5.05711 8.47204 6.44433 7.08726V7.08726ZM5.61646 2.61088C6.19237 2.76956 6.7942 2.90758 7.40467 3.01225C8.95242 3.27627 10.5045 3.31494 11.8291 2.95958C13.3727 2.54311 14.9427 2.21556 16.53 1.97883C15.2054 1.60947 13.6562 1.33344 12.0292 1.33344C9.54921 1.33344 7.23621 1.97416 5.61646 2.61088V2.61088Z" fill="#313945"/>
</svg>
