<svg width="22" height="23" viewBox="0 0 22 23" fill="none" xmlns="http://www.w3.org/2000/svg">
<path d="M9.37496 0.480407C9.17597 0.479703 8.97638 0.479904 8.77624 0.48076C7.81291 0.485237 6.83418 0.510545 5.8471 0.547172L6.13267 1.7996C7.1606 1.68338 8.28755 1.59684 9.4144 1.55357C10.0249 1.53013 10.6317 1.51775 11.2202 1.52087C12.9859 1.53008 14.588 1.67835 15.6361 2.08447L16.0843 2.25825L15.8842 2.69521C14.4221 5.8893 14.084 8.97079 14.3131 11.9943C14.4262 8.40609 15.9177 5.21466 17.8757 1.12335C15.2114 0.680601 12.3597 0.490319 9.37496 0.480357V0.480407ZM10.7854 2.43203C10.3457 2.43238 9.8974 2.44129 9.44917 2.45849C7.35255 2.53899 5.26322 2.78502 3.90151 3.06707C5.42261 5.88855 6.6531 8.71651 7.44769 11.4734C7.54652 11.4701 7.64545 11.4708 7.74423 11.4757C7.94638 11.4856 8.14633 11.513 8.34169 11.5556C7.53292 8.96974 6.61169 6.58477 5.46653 4.20343L5.20778 3.66539L5.79573 3.56134C7.2727 3.29982 8.79717 3.19859 10.2481 3.19814C10.3448 3.19814 10.4413 3.19849 10.5373 3.19935C11.4592 3.2074 12.3477 3.25509 13.1709 3.32689L13.7271 3.37544L13.5649 3.90961C12.624 7.007 12.4397 10.3334 12.9717 13.4983C12.9806 13.5065 12.9895 13.5146 12.9982 13.5229C13.19 13.4557 13.3695 13.3872 13.5368 13.3139C13.1215 9.92316 13.3055 6.42498 14.8564 2.78849C13.9909 2.56797 12.6716 2.45271 11.2219 2.4346C11.0764 2.4328 10.9309 2.43196 10.7854 2.43208V2.43203ZM18.078 2.80359C16.5205 6.10187 15.4143 8.74499 15.2329 11.5984C16.2411 8.23739 18.1898 5.22452 20.4103 3.28885C19.6395 3.09659 18.8615 2.93471 18.078 2.80359ZM3.23774 3.73583C2.29388 3.93044 1.37185 4.17747 0.480011 4.51879C0.914007 4.89513 1.69858 5.59523 2.65049 6.52571C3.08861 6.07475 3.53544 5.62924 4.00148 5.22412C3.75464 4.72409 3.50003 4.22793 3.23774 3.73583ZM10.3833 4.11227C9.69801 4.10894 8.99656 4.12857 8.29258 4.17732C8.21873 4.8657 7.8116 5.5097 7.32533 6.14303C8.1017 7.97788 8.77221 9.85021 9.37586 11.8381C10.3004 12.1108 11.215 12.4331 11.9559 12.8194C11.6807 10.6832 11.7183 8.49438 12.0756 6.35384C11.4274 5.68418 11.0897 4.94056 11.0626 4.12298C10.8362 4.11695 10.6097 4.11338 10.3833 4.11227ZM19.541 5.46995C18.2968 6.9441 17.2005 8.79042 16.4534 10.7986C17.8251 8.84743 19.5119 7.32547 21.3074 6.2504C20.7224 5.98169 20.1336 5.72152 19.541 5.46995ZM4.41007 6.07164C3.67581 6.73516 2.9503 7.53155 2.19476 8.29027C3.8193 9.25581 5.203 10.3993 6.33176 11.6944C6.40184 11.6679 6.47263 11.6441 6.54382 11.6225C6.01564 9.80638 5.2918 7.94799 4.41007 6.07164ZM16.1524 12.3482C15.3274 13.3438 14.5507 13.8694 13.4813 14.2888C13.6016 14.7527 13.4229 15.2852 13.0116 15.6925C12.7697 15.9321 12.4658 16.2051 12.0213 16.3826C12.0854 16.4206 12.1509 16.4562 12.2175 16.4896C12.8396 16.8 13.9386 16.6999 14.9595 16.2356C15.9774 15.7727 16.8866 14.9731 17.2236 14.1631C17.3925 13.7078 17.2719 13.4703 16.9762 13.1221C16.7657 12.8743 16.4583 12.6245 16.1524 12.3483V12.3482ZM7.59525 12.3777C7.05616 12.3728 6.50865 12.5283 6.05619 12.8688C5.4127 13.3529 4.91662 14.2163 4.91219 15.6829V15.693L4.91169 15.7031C4.76477 18.7913 4.99219 20.2161 5.44273 20.9891C5.8404 21.6715 6.50181 21.9981 7.46932 22.5988C7.51541 22.4778 7.56341 22.3289 7.60844 22.1411C7.723 21.6632 7.81779 21.0068 7.87786 20.2808C7.99806 18.8289 7.9805 17.0854 7.7795 15.8309L7.67329 15.1673L8.32816 15.318C9.91879 15.6839 10.8287 15.7271 11.357 15.6339C11.8854 15.5406 12.0644 15.3561 12.3743 15.0491C12.6656 14.7607 12.6602 14.6569 12.5985 14.4946C12.5368 14.3322 12.2892 14.0647 11.869 13.8087C11.0286 13.2967 9.60066 12.822 8.26592 12.468C8.047 12.4101 7.8217 12.3797 7.59525 12.3777ZM17.1093 15.8702C16.6056 16.3609 15.9856 16.7638 15.3345 17.0599C14.2788 17.54 13.1176 17.7596 12.1542 17.4399C11.8141 17.5665 11.6165 17.712 11.5168 17.8324C11.3801 17.9976 11.3715 18.1192 11.4178 18.2932C11.4641 18.4673 11.6022 18.674 11.773 18.8227C11.9437 18.9715 12.1466 19.0487 12.2238 19.0524C14.5781 19.1642 15.597 18.4885 16.8664 17.7048C17.2366 17.4763 17.3783 17.0134 17.3428 16.5511C17.3251 16.32 17.2578 16.1028 17.1802 15.966C17.1609 15.9311 17.1371 15.8989 17.1093 15.8702ZM8.74806 16.3278C8.88527 17.5891 8.88753 19.0605 8.78036 20.3555C8.71762 21.1138 8.62062 21.8034 8.48911 22.3522C8.4319 22.5909 8.36896 22.8027 8.29289 22.9891L15.6736 22.6638C15.5903 22.3544 15.5053 22.0437 15.4205 21.7329C15.1369 21.8273 14.847 21.9017 14.5531 21.9555L14.5553 21.9922L14.1369 22.0183C13.8792 22.0492 13.611 22.0662 13.3327 22.0682L9.11353 22.3303L9.23896 21.7463C9.6388 19.8845 9.67568 18.2451 9.42904 16.4518C9.20125 16.4149 8.9742 16.3736 8.74801 16.3278H8.74806ZM10.3567 16.5635C10.5553 18.1701 10.5314 19.7035 10.2356 21.3533L11.2048 21.2931C11.0528 21.0688 10.9484 20.8158 10.8979 20.5496C10.8327 20.2034 10.869 19.8181 11.0954 19.4995C11.1055 19.4854 11.1163 19.4719 11.127 19.4582C10.863 19.2145 10.6426 18.9017 10.5427 18.5262C10.4363 18.1266 10.5027 17.6372 10.8192 17.2548C10.9238 17.1286 11.0503 17.0146 11.1987 16.9119C11.0674 16.8073 10.9523 16.6963 10.8529 16.5808C10.6987 16.5818 10.5337 16.5761 10.3567 16.5635ZM17.0314 18.6658C15.8513 19.3829 14.5253 20.0683 12.1808 19.957C12.1043 19.9533 12.0282 19.9429 11.9535 19.9261C11.8914 19.9539 11.8583 19.9893 11.8336 20.024C11.7852 20.0922 11.7566 20.2152 11.7879 20.3819C11.8507 20.7153 12.1665 21.0807 12.4606 21.1149C14.5428 21.3571 15.9814 20.6759 16.8549 19.8834C17.2574 19.5183 17.2608 19.2847 17.2016 19.0306C17.1719 18.9036 17.1065 18.7806 17.0314 18.6658ZM16.6952 21.1342C16.5554 21.2219 16.4119 21.3034 16.2652 21.3788C16.3482 21.6832 16.4314 21.9876 16.5135 22.2921L17.5158 22.1124C17.2572 21.8917 17.0548 21.6619 16.8924 21.4334C16.8198 21.3313 16.7559 21.2321 16.6952 21.1342Z" fill="#00852B"/>
</svg>
