<svg width="19" height="20" viewBox="0 0 19 20" fill="none" xmlns="http://www.w3.org/2000/svg">
<path d="M18.0687 14.5406L16.1937 19.0406C16.1372 19.1782 16.0411 19.2959 15.9176 19.3787C15.7941 19.4615 15.6487 19.5057 15.5 19.5057C15.3513 19.5057 15.2059 19.4615 15.0824 19.3787C14.9589 19.2959 14.8628 19.1782 14.8063 19.0406L12.9313 14.5406C12.8931 14.4495 12.8732 14.3518 12.8728 14.253C12.8724 14.1543 12.8915 14.0564 12.9289 13.965C12.9664 13.8736 13.0214 13.7904 13.091 13.7203C13.1606 13.6502 13.2433 13.5944 13.3344 13.5563C13.4255 13.5181 13.5232 13.4982 13.622 13.4979C13.7208 13.4975 13.8186 13.5165 13.9101 13.554C14.0015 13.5914 14.0846 13.6465 14.1547 13.716C14.2248 13.7856 14.2806 13.8683 14.3187 13.9594L15.5 16.8L16.6813 13.9594C16.7194 13.8683 16.7752 13.7856 16.8453 13.716C16.9154 13.6465 16.9985 13.5914 17.0899 13.554C17.1814 13.5165 17.2792 13.4975 17.378 13.4979C17.4768 13.4982 17.5745 13.5181 17.6656 13.5563C17.7567 13.5944 17.8394 13.6502 17.909 13.7203C17.9786 13.7904 18.0336 13.8736 18.0711 13.965C18.1085 14.0564 18.1276 14.1543 18.1272 14.253C18.1268 14.3518 18.1069 14.4495 18.0687 14.5406ZM3.6875 15C3.98641 15.003 4.27363 15.1165 4.49375 15.3188C4.56641 15.3858 4.65176 15.4376 4.74477 15.4712C4.83778 15.5047 4.93657 15.5193 5.0353 15.5141C5.13404 15.5088 5.23072 15.4839 5.31965 15.4407C5.40859 15.3975 5.48797 15.3369 5.55313 15.2625C5.68735 15.1158 5.75781 14.9218 5.74902 14.7231C5.74023 14.5245 5.65291 14.3374 5.50625 14.2031C5.00639 13.7542 4.35934 13.5041 3.6875 13.5C2.14062 13.5 0.875 14.85 0.875 16.5C0.875 18.15 2.14062 19.5 3.6875 19.5C4.35934 19.4959 5.00639 19.2458 5.50625 18.7969C5.65291 18.6626 5.74023 18.4756 5.74902 18.2769C5.75781 18.0782 5.68735 17.8842 5.55313 17.7375C5.48797 17.6631 5.40859 17.6026 5.31965 17.5594C5.23072 17.5162 5.13404 17.4912 5.0353 17.486C4.93657 17.4807 4.83778 17.4953 4.74477 17.5288C4.65176 17.5624 4.56641 17.6142 4.49375 17.6813C4.27363 17.8835 3.98641 17.9971 3.6875 18C2.96563 18 2.375 17.325 2.375 16.5C2.375 15.675 2.96563 15 3.6875 15ZM9.65937 15.7313C9.36875 15.6563 8.85313 15.5156 8.75 15.3938V15.375C8.75 15.0656 8.975 14.9063 9.40625 14.9063C9.74125 14.9131 10.067 15.0173 10.3438 15.2063H10.3344C10.4704 15.3143 10.6388 15.3737 10.8125 15.375C11.0114 15.375 11.2022 15.296 11.3428 15.1553C11.4835 15.0147 11.5625 14.8239 11.5625 14.625C11.5643 14.5152 11.5407 14.4064 11.4936 14.3072C11.4464 14.208 11.377 14.1211 11.2906 14.0531C10.7497 13.6381 10.088 13.411 9.40625 13.4063C8.14062 13.4063 7.25 14.2125 7.25 15.375C7.25 16.5375 8.46875 16.9688 9.275 17.1844C9.59375 17.2688 9.93125 17.3531 10.1375 17.475C10.3438 17.5969 10.25 17.5688 10.25 17.625C10.25 17.6813 10.25 18.0938 9.40625 18.0938C9.07125 18.0869 8.74548 17.9827 8.46875 17.7938H8.47812C8.34206 17.6857 8.17375 17.6263 8 17.625C7.80109 17.625 7.61032 17.704 7.46967 17.8447C7.32902 17.9853 7.25 18.1761 7.25 18.375C7.24817 18.4848 7.27176 18.5936 7.31892 18.6928C7.36608 18.792 7.43554 18.879 7.52188 18.9469C8.06282 19.3619 8.72445 19.589 9.40625 19.5938C10.8781 19.5938 11.75 18.8531 11.75 17.625C11.75 16.3969 10.4375 15.9375 9.65937 15.7313ZM1.25 10.5V2.25001C1.25 1.85219 1.40804 1.47066 1.68934 1.18935C1.97064 0.908047 2.35218 0.750012 2.75 0.750012H11.75C11.9495 0.748887 12.1415 0.826345 12.2844 0.965637L17.5344 6.21564C17.6737 6.35851 17.7511 6.55048 17.75 6.75001V10.5C17.75 10.6989 17.671 10.8897 17.5303 11.0303C17.3897 11.171 17.1989 11.25 17 11.25H2C1.80109 11.25 1.61032 11.171 1.46967 11.0303C1.32902 10.8897 1.25 10.6989 1.25 10.5ZM11.75 6.75001H15.875L11.75 2.62501V6.75001Z" fill="#313945"/>
</svg>
