<svg width="262" height="115" viewBox="0 0 262 115" fill="none" xmlns="http://www.w3.org/2000/svg">
<rect width="262" height="115" fill="white"/>
<path d="M7.19544 53.648C7.64344 53.552 8.05544 53.504 8.43144 53.504C8.87944 53.504 9.27544 53.57 9.61944 53.702C9.96344 53.834 10.2494 54.016 10.4774 54.248C10.7094 54.48 10.8834 54.754 10.9994 55.07C11.1194 55.386 11.1794 55.73 11.1794 56.102C11.1794 56.558 11.0994 56.97 10.9394 57.338C10.7834 57.706 10.5654 58.022 10.2854 58.286C10.0094 58.546 9.68344 58.746 9.30744 58.886C8.93144 59.026 8.52544 59.096 8.08944 59.096C7.83744 59.096 7.59544 59.07 7.36344 59.018C7.13144 58.97 6.91344 58.904 6.70944 58.82C6.50944 58.736 6.32344 58.64 6.15144 58.532C5.97944 58.424 5.82744 58.31 5.69544 58.19L6.02544 57.734C6.09744 57.63 6.19144 57.578 6.30744 57.578C6.38744 57.578 6.47744 57.61 6.57744 57.674C6.67744 57.734 6.79944 57.802 6.94344 57.878C7.08744 57.954 7.25544 58.024 7.44744 58.088C7.64344 58.148 7.87544 58.178 8.14344 58.178C8.44344 58.178 8.71344 58.13 8.95344 58.034C9.19344 57.938 9.39944 57.802 9.57144 57.626C9.74344 57.446 9.87544 57.232 9.96744 56.984C10.0594 56.736 10.1054 56.458 10.1054 56.15C10.1054 55.882 10.0654 55.64 9.98544 55.424C9.90944 55.208 9.79144 55.024 9.63144 54.872C9.47544 54.72 9.27944 54.602 9.04344 54.518C8.80744 54.434 8.53144 54.392 8.21544 54.392C7.99944 54.392 7.77344 54.41 7.53744 54.446C7.30544 54.482 7.06744 54.54 6.82344 54.62L6.15144 54.422L6.84144 50.402H10.9154V50.87C10.9154 51.022 10.8674 51.148 10.7714 51.248C10.6794 51.344 10.5194 51.392 10.2914 51.392H7.59144L7.19544 53.648ZM18.5844 54.704C18.5844 55.456 18.5024 56.108 18.3384 56.66C18.1784 57.208 17.9584 57.662 17.6784 58.022C17.3984 58.382 17.0664 58.65 16.6824 58.826C16.3024 59.002 15.8944 59.09 15.4584 59.09C15.0184 59.09 14.6084 59.002 14.2284 58.826C13.8524 58.65 13.5244 58.382 13.2444 58.022C12.9644 57.662 12.7444 57.208 12.5844 56.66C12.4244 56.108 12.3444 55.456 12.3444 54.704C12.3444 53.952 12.4244 53.3 12.5844 52.748C12.7444 52.196 12.9644 51.74 13.2444 51.38C13.5244 51.016 13.8524 50.746 14.2284 50.57C14.6084 50.394 15.0184 50.306 15.4584 50.306C15.8944 50.306 16.3024 50.394 16.6824 50.57C17.0664 50.746 17.3984 51.016 17.6784 51.38C17.9584 51.74 18.1784 52.196 18.3384 52.748C18.5024 53.3 18.5844 53.952 18.5844 54.704ZM17.4744 54.704C17.4744 54.048 17.4184 53.498 17.3064 53.054C17.1984 52.606 17.0504 52.246 16.8624 51.974C16.6784 51.702 16.4644 51.508 16.2204 51.392C15.9764 51.272 15.7224 51.212 15.4584 51.212C15.1944 51.212 14.9404 51.272 14.6964 51.392C14.4524 51.508 14.2384 51.702 14.0544 51.974C13.8704 52.246 13.7224 52.606 13.6104 53.054C13.5024 53.498 13.4484 54.048 13.4484 54.704C13.4484 55.36 13.5024 55.91 13.6104 56.354C13.7224 56.798 13.8704 57.156 14.0544 57.428C14.2384 57.7 14.4524 57.896 14.6964 58.016C14.9404 58.132 15.1944 58.19 15.4584 58.19C15.7224 58.19 15.9764 58.132 16.2204 58.016C16.4644 57.896 16.6784 57.7 16.8624 57.428C17.0504 57.156 17.1984 56.798 17.3064 56.354C17.4184 55.91 17.4744 55.36 17.4744 54.704ZM25.5453 54.704C25.5453 55.456 25.4633 56.108 25.2993 56.66C25.1393 57.208 24.9193 57.662 24.6393 58.022C24.3593 58.382 24.0273 58.65 23.6433 58.826C23.2633 59.002 22.8553 59.09 22.4193 59.09C21.9793 59.09 21.5693 59.002 21.1893 58.826C20.8133 58.65 20.4853 58.382 20.2053 58.022C19.9253 57.662 19.7053 57.208 19.5453 56.66C19.3853 56.108 19.3053 55.456 19.3053 54.704C19.3053 53.952 19.3853 53.3 19.5453 52.748C19.7053 52.196 19.9253 51.74 20.2053 51.38C20.4853 51.016 20.8133 50.746 21.1893 50.57C21.5693 50.394 21.9793 50.306 22.4193 50.306C22.8553 50.306 23.2633 50.394 23.6433 50.57C24.0273 50.746 24.3593 51.016 24.6393 51.38C24.9193 51.74 25.1393 52.196 25.2993 52.748C25.4633 53.3 25.5453 53.952 25.5453 54.704ZM24.4353 54.704C24.4353 54.048 24.3793 53.498 24.2673 53.054C24.1593 52.606 24.0113 52.246 23.8233 51.974C23.6393 51.702 23.4253 51.508 23.1813 51.392C22.9373 51.272 22.6833 51.212 22.4193 51.212C22.1553 51.212 21.9013 51.272 21.6573 51.392C21.4133 51.508 21.1993 51.702 21.0153 51.974C20.8313 52.246 20.6833 52.606 20.5713 53.054C20.4633 53.498 20.4093 54.048 20.4093 54.704C20.4093 55.36 20.4633 55.91 20.5713 56.354C20.6833 56.798 20.8313 57.156 21.0153 57.428C21.1993 57.7 21.4133 57.896 21.6573 58.016C21.9013 58.132 22.1553 58.19 22.4193 58.19C22.6833 58.19 22.9373 58.132 23.1813 58.016C23.4253 57.896 23.6393 57.7 23.8233 57.428C24.0113 57.156 24.1593 56.798 24.2673 56.354C24.3793 55.91 24.4353 55.36 24.4353 54.704ZM27.8263 50.162V55.364H28.1023C28.1823 55.364 28.2483 55.354 28.3003 55.334C28.3563 55.31 28.4143 55.264 28.4743 55.196L30.3943 53.138C30.4503 53.07 30.5083 53.018 30.5683 52.982C30.6323 52.942 30.7163 52.922 30.8203 52.922H31.7863L29.5483 55.304C29.4403 55.44 29.3243 55.546 29.2003 55.622C29.2723 55.67 29.3363 55.726 29.3923 55.79C29.4523 55.85 29.5083 55.92 29.5603 56L31.9362 59H30.9823C30.8903 59 30.8103 58.986 30.7423 58.958C30.6783 58.926 30.6223 58.87 30.5743 58.79L28.5763 56.3C28.5163 56.216 28.4563 56.162 28.3963 56.138C28.3403 56.11 28.2523 56.096 28.1323 56.096H27.8263V59H26.7523V50.162H27.8263Z" fill="#86909C"/>
<path d="M10.9454 78.986C11.0614 78.986 11.1534 79.02 11.2214 79.088C11.2894 79.156 11.3234 79.244 11.3234 79.352V80H5.58744V79.634C5.58744 79.558 5.60344 79.48 5.63544 79.4C5.66744 79.32 5.71744 79.246 5.78544 79.178L8.53944 76.412C8.76744 76.18 8.97544 75.958 9.16344 75.746C9.35144 75.53 9.51144 75.314 9.64344 75.098C9.77544 74.882 9.87744 74.664 9.94944 74.444C10.0214 74.22 10.0574 73.982 10.0574 73.73C10.0574 73.478 10.0174 73.258 9.93744 73.07C9.85744 72.878 9.74744 72.72 9.60744 72.596C9.47144 72.472 9.30944 72.38 9.12144 72.32C8.93344 72.256 8.73144 72.224 8.51544 72.224C8.29544 72.224 8.09344 72.256 7.90944 72.32C7.72544 72.384 7.56144 72.474 7.41744 72.59C7.27744 72.702 7.15944 72.836 7.06344 72.992C6.96744 73.148 6.89944 73.32 6.85944 73.508C6.81144 73.648 6.74544 73.742 6.66144 73.79C6.58144 73.834 6.46744 73.846 6.31944 73.826L5.76144 73.73C5.81744 73.338 5.92544 72.992 6.08544 72.692C6.24944 72.388 6.45344 72.134 6.69744 71.93C6.94544 71.726 7.22744 71.572 7.54344 71.468C7.85944 71.36 8.20144 71.306 8.56944 71.306C8.93344 71.306 9.27344 71.36 9.58944 71.468C9.90544 71.576 10.1794 71.734 10.4114 71.942C10.6434 72.146 10.8254 72.396 10.9574 72.692C11.0894 72.988 11.1554 73.324 11.1554 73.7C11.1554 74.02 11.1074 74.318 11.0114 74.594C10.9154 74.866 10.7854 75.126 10.6214 75.374C10.4574 75.622 10.2674 75.864 10.0514 76.1C9.83944 76.336 9.61344 76.574 9.37344 76.814L7.10544 79.13C7.26544 79.086 7.42744 79.052 7.59144 79.028C7.75544 79 7.91344 78.986 8.06544 78.986H10.9454ZM14.1564 74.648C14.6044 74.552 15.0164 74.504 15.3924 74.504C15.8404 74.504 16.2364 74.57 16.5804 74.702C16.9244 74.834 17.2104 75.016 17.4384 75.248C17.6704 75.48 17.8444 75.754 17.9604 76.07C18.0804 76.386 18.1404 76.73 18.1404 77.102C18.1404 77.558 18.0604 77.97 17.9004 78.338C17.7444 78.706 17.5264 79.022 17.2464 79.286C16.9704 79.546 16.6444 79.746 16.2684 79.886C15.8924 80.026 15.4864 80.096 15.0504 80.096C14.7984 80.096 14.5564 80.07 14.3244 80.018C14.0924 79.97 13.8744 79.904 13.6704 79.82C13.4704 79.736 13.2844 79.64 13.1124 79.532C12.9404 79.424 12.7884 79.31 12.6564 79.19L12.9864 78.734C13.0584 78.63 13.1524 78.578 13.2684 78.578C13.3484 78.578 13.4384 78.61 13.5384 78.674C13.6384 78.734 13.7604 78.802 13.9044 78.878C14.0484 78.954 14.2164 79.024 14.4084 79.088C14.6044 79.148 14.8364 79.178 15.1044 79.178C15.4044 79.178 15.6744 79.13 15.9144 79.034C16.1544 78.938 16.3604 78.802 16.5324 78.626C16.7044 78.446 16.8364 78.232 16.9284 77.984C17.0204 77.736 17.0664 77.458 17.0664 77.15C17.0664 76.882 17.0264 76.64 16.9464 76.424C16.8704 76.208 16.7524 76.024 16.5924 75.872C16.4364 75.72 16.2404 75.602 16.0044 75.518C15.7684 75.434 15.4924 75.392 15.1764 75.392C14.9604 75.392 14.7344 75.41 14.4984 75.446C14.2664 75.482 14.0284 75.54 13.7844 75.62L13.1124 75.422L13.8024 71.402H17.8764V71.87C17.8764 72.022 17.8284 72.148 17.7324 72.248C17.6404 72.344 17.4804 72.392 17.2524 72.392H14.5524L14.1564 74.648ZM25.5453 75.704C25.5453 76.456 25.4633 77.108 25.2993 77.66C25.1393 78.208 24.9193 78.662 24.6393 79.022C24.3593 79.382 24.0273 79.65 23.6433 79.826C23.2633 80.002 22.8553 80.09 22.4193 80.09C21.9793 80.09 21.5693 80.002 21.1893 79.826C20.8133 79.65 20.4853 79.382 20.2053 79.022C19.9253 78.662 19.7053 78.208 19.5453 77.66C19.3853 77.108 19.3053 76.456 19.3053 75.704C19.3053 74.952 19.3853 74.3 19.5453 73.748C19.7053 73.196 19.9253 72.74 20.2053 72.38C20.4853 72.016 20.8133 71.746 21.1893 71.57C21.5693 71.394 21.9793 71.306 22.4193 71.306C22.8553 71.306 23.2633 71.394 23.6433 71.57C24.0273 71.746 24.3593 72.016 24.6393 72.38C24.9193 72.74 25.1393 73.196 25.2993 73.748C25.4633 74.3 25.5453 74.952 25.5453 75.704ZM24.4353 75.704C24.4353 75.048 24.3793 74.498 24.2673 74.054C24.1593 73.606 24.0113 73.246 23.8233 72.974C23.6393 72.702 23.4253 72.508 23.1813 72.392C22.9373 72.272 22.6833 72.212 22.4193 72.212C22.1553 72.212 21.9013 72.272 21.6573 72.392C21.4133 72.508 21.1993 72.702 21.0153 72.974C20.8313 73.246 20.6833 73.606 20.5713 74.054C20.4633 74.498 20.4093 75.048 20.4093 75.704C20.4093 76.36 20.4633 76.91 20.5713 77.354C20.6833 77.798 20.8313 78.156 21.0153 78.428C21.1993 78.7 21.4133 78.896 21.6573 79.016C21.9013 79.132 22.1553 79.19 22.4193 79.19C22.6833 79.19 22.9373 79.132 23.1813 79.016C23.4253 78.896 23.6393 78.7 23.8233 78.428C24.0113 78.156 24.1593 77.798 24.2673 77.354C24.3793 76.91 24.4353 76.36 24.4353 75.704ZM27.8263 71.162V76.364H28.1023C28.1823 76.364 28.2483 76.354 28.3003 76.334C28.3563 76.31 28.4143 76.264 28.4743 76.196L30.3943 74.138C30.4503 74.07 30.5083 74.018 30.5683 73.982C30.6323 73.942 30.7163 73.922 30.8203 73.922H31.7863L29.5483 76.304C29.4403 76.44 29.3243 76.546 29.2003 76.622C29.2723 76.67 29.3363 76.726 29.3923 76.79C29.4523 76.85 29.5083 76.92 29.5603 77L31.9362 80H30.9823C30.8903 80 30.8103 79.986 30.7423 79.958C30.6783 79.926 30.6223 79.87 30.5743 79.79L28.5763 77.3C28.5163 77.216 28.4563 77.162 28.3963 77.138C28.3403 77.11 28.2523 77.096 28.1323 77.096H27.8263V80H26.7523V71.162H27.8263Z" fill="#86909C"/>
<path d="M31.6391 96.704C31.6391 97.456 31.5571 98.108 31.3931 98.66C31.2331 99.208 31.0131 99.662 30.7331 100.022C30.4531 100.382 30.1211 100.65 29.7371 100.826C29.3571 101.002 28.9491 101.09 28.5131 101.09C28.0731 101.09 27.6631 101.002 27.2831 100.826C26.9071 100.65 26.5791 100.382 26.2991 100.022C26.0191 99.662 25.7991 99.208 25.6391 98.66C25.4791 98.108 25.3991 97.456 25.3991 96.704C25.3991 95.952 25.4791 95.3 25.6391 94.748C25.7991 94.196 26.0191 93.74 26.2991 93.38C26.5791 93.016 26.9071 92.746 27.2831 92.57C27.6631 92.394 28.0731 92.306 28.5131 92.306C28.9491 92.306 29.3571 92.394 29.7371 92.57C30.1211 92.746 30.4531 93.016 30.7331 93.38C31.0131 93.74 31.2331 94.196 31.3931 94.748C31.5571 95.3 31.6391 95.952 31.6391 96.704ZM30.5291 96.704C30.5291 96.048 30.4731 95.498 30.3611 95.054C30.2531 94.606 30.1051 94.246 29.9171 93.974C29.7331 93.702 29.5191 93.508 29.2751 93.392C29.0311 93.272 28.7771 93.212 28.5131 93.212C28.2491 93.212 27.9951 93.272 27.7511 93.392C27.5071 93.508 27.2931 93.702 27.1091 93.974C26.9251 94.246 26.7771 94.606 26.6651 95.054C26.5571 95.498 26.5031 96.048 26.5031 96.704C26.5031 97.36 26.5571 97.91 26.6651 98.354C26.7771 98.798 26.9251 99.156 27.1091 99.428C27.2931 99.7 27.5071 99.896 27.7511 100.016C27.9951 100.132 28.2491 100.19 28.5131 100.19C28.7771 100.19 29.0311 100.132 29.2751 100.016C29.5191 99.896 29.7331 99.7 29.9171 99.428C30.1051 99.156 30.2531 98.798 30.3611 98.354C30.4731 97.91 30.5291 97.36 30.5291 96.704Z" fill="#86909C"/>
<path d="M11.5094 29.402V29.882C11.5094 30.018 11.4934 30.13 11.4614 30.218C11.4334 30.306 11.4054 30.38 11.3774 30.44L7.81344 37.622C7.76144 37.726 7.68944 37.816 7.59744 37.892C7.50544 37.964 7.38344 38 7.23144 38H6.46344L10.0754 30.908C10.1274 30.808 10.1814 30.716 10.2374 30.632C10.2934 30.548 10.3534 30.468 10.4174 30.392H5.92944C5.86144 30.392 5.80144 30.366 5.74944 30.314C5.69744 30.258 5.67144 30.196 5.67144 30.128V29.402H11.5094ZM14.1564 32.648C14.6044 32.552 15.0164 32.504 15.3924 32.504C15.8404 32.504 16.2364 32.57 16.5804 32.702C16.9244 32.834 17.2104 33.016 17.4384 33.248C17.6704 33.48 17.8444 33.754 17.9604 34.07C18.0804 34.386 18.1404 34.73 18.1404 35.102C18.1404 35.558 18.0604 35.97 17.9004 36.338C17.7444 36.706 17.5264 37.022 17.2464 37.286C16.9704 37.546 16.6444 37.746 16.2684 37.886C15.8924 38.026 15.4864 38.096 15.0504 38.096C14.7984 38.096 14.5564 38.07 14.3244 38.018C14.0924 37.97 13.8744 37.904 13.6704 37.82C13.4704 37.736 13.2844 37.64 13.1124 37.532C12.9404 37.424 12.7884 37.31 12.6564 37.19L12.9864 36.734C13.0584 36.63 13.1524 36.578 13.2684 36.578C13.3484 36.578 13.4384 36.61 13.5384 36.674C13.6384 36.734 13.7604 36.802 13.9044 36.878C14.0484 36.954 14.2164 37.024 14.4084 37.088C14.6044 37.148 14.8364 37.178 15.1044 37.178C15.4044 37.178 15.6744 37.13 15.9144 37.034C16.1544 36.938 16.3604 36.802 16.5324 36.626C16.7044 36.446 16.8364 36.232 16.9284 35.984C17.0204 35.736 17.0664 35.458 17.0664 35.15C17.0664 34.882 17.0264 34.64 16.9464 34.424C16.8704 34.208 16.7524 34.024 16.5924 33.872C16.4364 33.72 16.2404 33.602 16.0044 33.518C15.7684 33.434 15.4924 33.392 15.1764 33.392C14.9604 33.392 14.7344 33.41 14.4984 33.446C14.2664 33.482 14.0284 33.54 13.7844 33.62L13.1124 33.422L13.8024 29.402H17.8764V29.87C17.8764 30.022 17.8284 30.148 17.7324 30.248C17.6404 30.344 17.4804 30.392 17.2524 30.392H14.5524L14.1564 32.648ZM25.5453 33.704C25.5453 34.456 25.4633 35.108 25.2993 35.66C25.1393 36.208 24.9193 36.662 24.6393 37.022C24.3593 37.382 24.0273 37.65 23.6433 37.826C23.2633 38.002 22.8553 38.09 22.4193 38.09C21.9793 38.09 21.5693 38.002 21.1893 37.826C20.8133 37.65 20.4853 37.382 20.2053 37.022C19.9253 36.662 19.7053 36.208 19.5453 35.66C19.3853 35.108 19.3053 34.456 19.3053 33.704C19.3053 32.952 19.3853 32.3 19.5453 31.748C19.7053 31.196 19.9253 30.74 20.2053 30.38C20.4853 30.016 20.8133 29.746 21.1893 29.57C21.5693 29.394 21.9793 29.306 22.4193 29.306C22.8553 29.306 23.2633 29.394 23.6433 29.57C24.0273 29.746 24.3593 30.016 24.6393 30.38C24.9193 30.74 25.1393 31.196 25.2993 31.748C25.4633 32.3 25.5453 32.952 25.5453 33.704ZM24.4353 33.704C24.4353 33.048 24.3793 32.498 24.2673 32.054C24.1593 31.606 24.0113 31.246 23.8233 30.974C23.6393 30.702 23.4253 30.508 23.1813 30.392C22.9373 30.272 22.6833 30.212 22.4193 30.212C22.1553 30.212 21.9013 30.272 21.6573 30.392C21.4133 30.508 21.1993 30.702 21.0153 30.974C20.8313 31.246 20.6833 31.606 20.5713 32.054C20.4633 32.498 20.4093 33.048 20.4093 33.704C20.4093 34.36 20.4633 34.91 20.5713 35.354C20.6833 35.798 20.8313 36.156 21.0153 36.428C21.1993 36.7 21.4133 36.896 21.6573 37.016C21.9013 37.132 22.1553 37.19 22.4193 37.19C22.6833 37.19 22.9373 37.132 23.1813 37.016C23.4253 36.896 23.6393 36.7 23.8233 36.428C24.0113 36.156 24.1593 35.798 24.2673 35.354C24.3793 34.91 24.4353 34.36 24.4353 33.704ZM27.8263 29.162V34.364H28.1023C28.1823 34.364 28.2483 34.354 28.3003 34.334C28.3563 34.31 28.4143 34.264 28.4743 34.196L30.3943 32.138C30.4503 32.07 30.5083 32.018 30.5683 31.982C30.6323 31.942 30.7163 31.922 30.8203 31.922H31.7863L29.5483 34.304C29.4403 34.44 29.3243 34.546 29.2003 34.622C29.2723 34.67 29.3363 34.726 29.3923 34.79C29.4523 34.85 29.5083 34.92 29.5603 35L31.9362 38H30.9823C30.8903 38 30.8103 37.986 30.7423 37.958C30.6783 37.926 30.6223 37.87 30.5743 37.79L28.5763 35.3C28.5163 35.216 28.4563 35.162 28.3963 35.138C28.3403 35.11 28.2523 35.096 28.1323 35.096H27.8263V38H26.7523V29.162H27.8263Z" fill="#86909C"/>
<path d="M59.868 98.835L57.633 106H56.763L54.948 100.535C54.9313 100.482 54.9146 100.425 54.898 100.365C54.8846 100.305 54.8696 100.242 54.853 100.175C54.8363 100.242 54.8196 100.305 54.803 100.365C54.7863 100.425 54.7696 100.482 54.753 100.535L52.928 106H52.058L49.823 98.835H50.628C50.7146 98.835 50.7863 98.8567 50.843 98.9C50.903 98.9433 50.9413 98.9983 50.958 99.065L52.438 104.045C52.4613 104.135 52.483 104.232 52.503 104.335C52.5263 104.438 52.548 104.548 52.568 104.665C52.5913 104.548 52.6146 104.438 52.638 104.335C52.6646 104.228 52.693 104.132 52.723 104.045L54.408 99.065C54.428 99.0083 54.4663 98.9567 54.523 98.91C54.583 98.86 54.6546 98.835 54.738 98.835H55.018C55.1046 98.835 55.1746 98.8567 55.228 98.9C55.2813 98.9433 55.3213 98.9983 55.348 99.065L57.028 104.045C57.058 104.132 57.0846 104.225 57.108 104.325C57.1346 104.425 57.1596 104.53 57.183 104.64C57.1996 104.53 57.218 104.425 57.238 104.325C57.258 104.225 57.2796 104.132 57.303 104.045L58.788 99.065C58.8046 99.005 58.8413 98.9517 58.898 98.905C58.958 98.8583 59.0296 98.835 59.113 98.835H59.868ZM63.5481 102.915C63.5481 102.708 63.5181 102.52 63.4581 102.35C63.4015 102.177 63.3165 102.028 63.2031 101.905C63.0931 101.778 62.9581 101.682 62.7981 101.615C62.6381 101.545 62.4565 101.51 62.2531 101.51C61.8265 101.51 61.4881 101.635 61.2381 101.885C60.9915 102.132 60.8381 102.475 60.7781 102.915H63.5481ZM64.2681 105.29C64.1581 105.423 64.0265 105.54 63.8731 105.64C63.7198 105.737 63.5548 105.817 63.3781 105.88C63.2048 105.943 63.0248 105.99 62.8381 106.02C62.6515 106.053 62.4665 106.07 62.2831 106.07C61.9331 106.07 61.6098 106.012 61.3131 105.895C61.0198 105.775 60.7648 105.602 60.5481 105.375C60.3348 105.145 60.1681 104.862 60.0481 104.525C59.9281 104.188 59.8681 103.802 59.8681 103.365C59.8681 103.012 59.9215 102.682 60.0281 102.375C60.1381 102.068 60.2948 101.803 60.4981 101.58C60.7015 101.353 60.9498 101.177 61.2431 101.05C61.5365 100.92 61.8665 100.855 62.2331 100.855C62.5365 100.855 62.8165 100.907 63.0731 101.01C63.3331 101.11 63.5565 101.257 63.7431 101.45C63.9331 101.64 64.0815 101.877 64.1881 102.16C64.2948 102.44 64.3481 102.76 64.3481 103.12C64.3481 103.26 64.3331 103.353 64.3031 103.4C64.2731 103.447 64.2165 103.47 64.1331 103.47H60.7481C60.7581 103.79 60.8015 104.068 60.8781 104.305C60.9581 104.542 61.0681 104.74 61.2081 104.9C61.3481 105.057 61.5148 105.175 61.7081 105.255C61.9015 105.332 62.1181 105.37 62.3581 105.37C62.5815 105.37 62.7731 105.345 62.9331 105.295C63.0965 105.242 63.2365 105.185 63.3531 105.125C63.4698 105.065 63.5665 105.01 63.6431 104.96C63.7231 104.907 63.7915 104.88 63.8481 104.88C63.9215 104.88 63.9781 104.908 64.0181 104.965L64.2681 105.29ZM68.7413 102.14C68.5747 101.917 68.3947 101.762 68.2013 101.675C68.008 101.585 67.7913 101.54 67.5513 101.54C67.0813 101.54 66.7197 101.708 66.4663 102.045C66.213 102.382 66.0863 102.862 66.0863 103.485C66.0863 103.815 66.1147 104.098 66.1713 104.335C66.228 104.568 66.3113 104.762 66.4213 104.915C66.5313 105.065 66.6663 105.175 66.8263 105.245C66.9863 105.315 67.168 105.35 67.3713 105.35C67.6647 105.35 67.9197 105.283 68.1363 105.15C68.3563 105.017 68.558 104.828 68.7413 104.585V102.14ZM69.6313 98.635V106H69.1013C68.9747 106 68.8947 105.938 68.8613 105.815L68.7813 105.2C68.5647 105.46 68.318 105.67 68.0413 105.83C67.7647 105.99 67.4447 106.07 67.0813 106.07C66.7913 106.07 66.528 106.015 66.2913 105.905C66.0547 105.792 65.853 105.627 65.6863 105.41C65.5197 105.193 65.3913 104.923 65.3013 104.6C65.2113 104.277 65.1663 103.905 65.1663 103.485C65.1663 103.112 65.2163 102.765 65.3163 102.445C65.4163 102.122 65.5597 101.842 65.7463 101.605C65.933 101.368 66.1613 101.183 66.4313 101.05C66.7047 100.913 67.0113 100.845 67.3513 100.845C67.6613 100.845 67.9263 100.898 68.1463 101.005C68.3697 101.108 68.568 101.253 68.7413 101.44V98.635H69.6313Z" fill="#86909C"/>
<path d="M87.2737 99.65H84.9537V106H83.9887V99.65H81.6637V98.835H87.2737V99.65ZM88.934 101.61C89.1507 101.38 89.3907 101.197 89.654 101.06C89.9173 100.923 90.2207 100.855 90.564 100.855C90.8407 100.855 91.084 100.902 91.294 100.995C91.5073 101.085 91.684 101.215 91.824 101.385C91.9673 101.552 92.0757 101.753 92.149 101.99C92.2223 102.227 92.259 102.488 92.259 102.775V106H91.364V102.775C91.364 102.392 91.2757 102.095 91.099 101.885C90.9257 101.672 90.6607 101.565 90.304 101.565C90.0407 101.565 89.794 101.628 89.564 101.755C89.3373 101.882 89.1273 102.053 88.934 102.27V106H88.039V98.635H88.934V101.61ZM97.7802 100.935V106H97.2502C97.1235 106 97.0435 105.938 97.0102 105.815L96.9402 105.27C96.7202 105.513 96.4735 105.71 96.2002 105.86C95.9268 106.007 95.6135 106.08 95.2602 106.08C94.9835 106.08 94.7385 106.035 94.5252 105.945C94.3152 105.852 94.1385 105.722 93.9952 105.555C93.8518 105.388 93.7435 105.187 93.6702 104.95C93.6002 104.713 93.5652 104.452 93.5652 104.165V100.935H94.4552V104.165C94.4552 104.548 94.5418 104.845 94.7152 105.055C94.8918 105.265 95.1602 105.37 95.5202 105.37C95.7835 105.37 96.0285 105.308 96.2552 105.185C96.4852 105.058 96.6968 104.885 96.8902 104.665V100.935H97.7802Z" fill="#86909C"/>
<path d="M116.25 99.625V102.13H119.195V102.92H116.25V106H115.28V98.835H119.695V99.625H116.25ZM121.14 101.95C121.3 101.603 121.497 101.333 121.73 101.14C121.963 100.943 122.248 100.845 122.585 100.845C122.692 100.845 122.793 100.857 122.89 100.88C122.99 100.903 123.078 100.94 123.155 100.99L123.09 101.655C123.07 101.738 123.02 101.78 122.94 101.78C122.893 101.78 122.825 101.77 122.735 101.75C122.645 101.73 122.543 101.72 122.43 101.72C122.27 101.72 122.127 101.743 122 101.79C121.877 101.837 121.765 101.907 121.665 102C121.568 102.09 121.48 102.203 121.4 102.34C121.323 102.473 121.253 102.627 121.19 102.8V106H120.295V100.935H120.805C120.902 100.935 120.968 100.953 121.005 100.99C121.042 101.027 121.067 101.09 121.08 101.18L121.14 101.95ZM124.877 100.935V106H123.987V100.935H124.877ZM125.067 99.345C125.067 99.4317 125.049 99.5133 125.012 99.59C124.979 99.6633 124.932 99.73 124.872 99.79C124.816 99.8467 124.747 99.8917 124.667 99.925C124.591 99.9583 124.509 99.975 124.422 99.975C124.336 99.975 124.254 99.9583 124.177 99.925C124.104 99.8917 124.039 99.8467 123.982 99.79C123.926 99.73 123.881 99.6633 123.847 99.59C123.814 99.5133 123.797 99.4317 123.797 99.345C123.797 99.2583 123.814 99.1767 123.847 99.1C123.881 99.02 123.926 98.9517 123.982 98.895C124.039 98.835 124.104 98.7883 124.177 98.755C124.254 98.7217 124.336 98.705 124.422 98.705C124.509 98.705 124.591 98.7217 124.667 98.755C124.747 98.7883 124.816 98.835 124.872 98.895C124.932 98.9517 124.979 99.02 125.012 99.1C125.049 99.1767 125.067 99.2583 125.067 99.345Z" fill="#86909C"/>
<path d="M148.156 99.955C148.126 100.005 148.093 100.043 148.056 100.07C148.023 100.093 147.981 100.105 147.931 100.105C147.875 100.105 147.808 100.077 147.731 100.02C147.655 99.9633 147.558 99.9017 147.441 99.835C147.328 99.765 147.19 99.7017 147.026 99.645C146.866 99.5883 146.671 99.56 146.441 99.56C146.225 99.56 146.033 99.59 145.866 99.65C145.703 99.7067 145.565 99.785 145.451 99.885C145.341 99.985 145.258 100.103 145.201 100.24C145.145 100.373 145.116 100.518 145.116 100.675C145.116 100.875 145.165 101.042 145.261 101.175C145.361 101.305 145.491 101.417 145.651 101.51C145.815 101.603 145.998 101.685 146.201 101.755C146.408 101.822 146.618 101.892 146.831 101.965C147.048 102.038 147.258 102.122 147.461 102.215C147.668 102.305 147.851 102.42 148.011 102.56C148.175 102.7 148.305 102.872 148.401 103.075C148.501 103.278 148.551 103.528 148.551 103.825C148.551 104.138 148.498 104.433 148.391 104.71C148.285 104.983 148.128 105.222 147.921 105.425C147.718 105.628 147.466 105.788 147.166 105.905C146.87 106.022 146.531 106.08 146.151 106.08C145.685 106.08 145.261 105.997 144.881 105.83C144.501 105.66 144.176 105.432 143.906 105.145L144.186 104.685C144.213 104.648 144.245 104.618 144.281 104.595C144.321 104.568 144.365 104.555 144.411 104.555C144.455 104.555 144.503 104.573 144.556 104.61C144.613 104.643 144.676 104.687 144.746 104.74C144.816 104.793 144.896 104.852 144.986 104.915C145.076 104.978 145.178 105.037 145.291 105.09C145.408 105.143 145.54 105.188 145.686 105.225C145.833 105.258 145.998 105.275 146.181 105.275C146.411 105.275 146.616 105.243 146.796 105.18C146.976 105.117 147.128 105.028 147.251 104.915C147.378 104.798 147.475 104.66 147.541 104.5C147.608 104.34 147.641 104.162 147.641 103.965C147.641 103.748 147.591 103.572 147.491 103.435C147.395 103.295 147.266 103.178 147.106 103.085C146.946 102.992 146.763 102.913 146.556 102.85C146.35 102.783 146.14 102.717 145.926 102.65C145.713 102.58 145.503 102.5 145.296 102.41C145.09 102.32 144.906 102.203 144.746 102.06C144.586 101.917 144.456 101.738 144.356 101.525C144.26 101.308 144.211 101.042 144.211 100.725C144.211 100.472 144.26 100.227 144.356 99.99C144.456 99.7533 144.6 99.5433 144.786 99.36C144.976 99.1767 145.208 99.03 145.481 98.92C145.758 98.81 146.075 98.755 146.431 98.755C146.831 98.755 147.195 98.8183 147.521 98.945C147.851 99.0717 148.141 99.255 148.391 99.495L148.156 99.955ZM152.388 103.72C151.978 103.733 151.628 103.767 151.338 103.82C151.051 103.87 150.816 103.937 150.633 104.02C150.453 104.103 150.321 104.202 150.238 104.315C150.158 104.428 150.118 104.555 150.118 104.695C150.118 104.828 150.139 104.943 150.183 105.04C150.226 105.137 150.284 105.217 150.358 105.28C150.434 105.34 150.523 105.385 150.623 105.415C150.726 105.442 150.836 105.455 150.953 105.455C151.109 105.455 151.253 105.44 151.383 105.41C151.513 105.377 151.634 105.33 151.748 105.27C151.864 105.21 151.974 105.138 152.078 105.055C152.184 104.972 152.288 104.877 152.388 104.77V103.72ZM149.513 101.65C149.793 101.38 150.094 101.178 150.418 101.045C150.741 100.912 151.099 100.845 151.493 100.845C151.776 100.845 152.028 100.892 152.248 100.985C152.468 101.078 152.653 101.208 152.803 101.375C152.953 101.542 153.066 101.743 153.143 101.98C153.219 102.217 153.258 102.477 153.258 102.76V106H152.863C152.776 106 152.709 105.987 152.663 105.96C152.616 105.93 152.579 105.873 152.553 105.79L152.453 105.31C152.319 105.433 152.189 105.543 152.062 105.64C151.936 105.733 151.803 105.813 151.663 105.88C151.523 105.943 151.373 105.992 151.213 106.025C151.056 106.062 150.881 106.08 150.688 106.08C150.491 106.08 150.306 106.053 150.133 106C149.959 105.943 149.808 105.86 149.678 105.75C149.551 105.64 149.449 105.502 149.373 105.335C149.299 105.165 149.263 104.965 149.263 104.735C149.263 104.535 149.318 104.343 149.428 104.16C149.538 103.973 149.716 103.808 149.963 103.665C150.209 103.522 150.531 103.405 150.928 103.315C151.324 103.222 151.811 103.168 152.388 103.155V102.76C152.388 102.367 152.303 102.07 152.133 101.87C151.963 101.667 151.714 101.565 151.388 101.565C151.168 101.565 150.983 101.593 150.833 101.65C150.686 101.703 150.558 101.765 150.448 101.835C150.341 101.902 150.248 101.963 150.168 102.02C150.091 102.073 150.014 102.1 149.938 102.1C149.878 102.1 149.826 102.085 149.783 102.055C149.739 102.022 149.703 101.982 149.672 101.935L149.513 101.65ZM156.1 106.08C155.7 106.08 155.392 105.968 155.175 105.745C154.962 105.522 154.855 105.2 154.855 104.78V101.68H154.245C154.192 101.68 154.147 101.665 154.11 101.635C154.073 101.602 154.055 101.552 154.055 101.485V101.13L154.885 101.025L155.09 99.46C155.1 99.41 155.122 99.37 155.155 99.34C155.192 99.3067 155.238 99.29 155.295 99.29H155.745V101.035H157.21V101.68H155.745V104.72C155.745 104.933 155.797 105.092 155.9 105.195C156.003 105.298 156.137 105.35 156.3 105.35C156.393 105.35 156.473 105.338 156.54 105.315C156.61 105.288 156.67 105.26 156.72 105.23C156.77 105.2 156.812 105.173 156.845 105.15C156.882 105.123 156.913 105.11 156.94 105.11C156.987 105.11 157.028 105.138 157.065 105.195L157.325 105.62C157.172 105.763 156.987 105.877 156.77 105.96C156.553 106.04 156.33 106.08 156.1 106.08Z" fill="#86909C"/>
<path d="M177.338 99.955C177.308 100.005 177.274 100.043 177.238 100.07C177.204 100.093 177.163 100.105 177.113 100.105C177.056 100.105 176.989 100.077 176.913 100.02C176.836 99.9633 176.739 99.9017 176.623 99.835C176.509 99.765 176.371 99.7017 176.208 99.645C176.048 99.5883 175.853 99.56 175.623 99.56C175.406 99.56 175.214 99.59 175.048 99.65C174.884 99.7067 174.746 99.785 174.633 99.885C174.523 99.985 174.439 100.103 174.383 100.24C174.326 100.373 174.298 100.518 174.298 100.675C174.298 100.875 174.346 101.042 174.443 101.175C174.543 101.305 174.673 101.417 174.833 101.51C174.996 101.603 175.179 101.685 175.383 101.755C175.589 101.822 175.799 101.892 176.013 101.965C176.229 102.038 176.439 102.122 176.643 102.215C176.849 102.305 177.033 102.42 177.193 102.56C177.356 102.7 177.486 102.872 177.583 103.075C177.683 103.278 177.733 103.528 177.733 103.825C177.733 104.138 177.679 104.433 177.573 104.71C177.466 104.983 177.309 105.222 177.103 105.425C176.899 105.628 176.648 105.788 176.348 105.905C176.051 106.022 175.713 106.08 175.333 106.08C174.866 106.08 174.443 105.997 174.063 105.83C173.683 105.66 173.358 105.432 173.088 105.145L173.368 104.685C173.394 104.648 173.426 104.618 173.463 104.595C173.503 104.568 173.546 104.555 173.593 104.555C173.636 104.555 173.684 104.573 173.738 104.61C173.794 104.643 173.858 104.687 173.928 104.74C173.998 104.793 174.078 104.852 174.168 104.915C174.258 104.978 174.359 105.037 174.473 105.09C174.589 105.143 174.721 105.188 174.868 105.225C175.014 105.258 175.179 105.275 175.363 105.275C175.593 105.275 175.798 105.243 175.978 105.18C176.158 105.117 176.309 105.028 176.433 104.915C176.559 104.798 176.656 104.66 176.723 104.5C176.789 104.34 176.823 104.162 176.823 103.965C176.823 103.748 176.773 103.572 176.673 103.435C176.576 103.295 176.448 103.178 176.288 103.085C176.128 102.992 175.944 102.913 175.738 102.85C175.531 102.783 175.321 102.717 175.108 102.65C174.894 102.58 174.684 102.5 174.478 102.41C174.271 102.32 174.088 102.203 173.928 102.06C173.768 101.917 173.638 101.738 173.538 101.525C173.441 101.308 173.393 101.042 173.393 100.725C173.393 100.472 173.441 100.227 173.538 99.99C173.638 99.7533 173.781 99.5433 173.968 99.36C174.158 99.1767 174.389 99.03 174.663 98.92C174.939 98.81 175.256 98.755 175.613 98.755C176.013 98.755 176.376 98.8183 176.703 98.945C177.033 99.0717 177.323 99.255 177.573 99.495L177.338 99.955ZM182.96 100.935V106H182.43C182.303 106 182.223 105.938 182.19 105.815L182.12 105.27C181.9 105.513 181.653 105.71 181.38 105.86C181.107 106.007 180.793 106.08 180.44 106.08C180.163 106.08 179.918 106.035 179.705 105.945C179.495 105.852 179.318 105.722 179.175 105.555C179.032 105.388 178.923 105.187 178.85 104.95C178.78 104.713 178.745 104.452 178.745 104.165V100.935H179.635V104.165C179.635 104.548 179.722 104.845 179.895 105.055C180.072 105.265 180.34 105.37 180.7 105.37C180.963 105.37 181.208 105.308 181.435 105.185C181.665 105.058 181.877 104.885 182.07 104.665V100.935H182.96ZM185.211 101.67C185.321 101.547 185.438 101.435 185.561 101.335C185.684 101.235 185.814 101.15 185.951 101.08C186.091 101.007 186.238 100.952 186.391 100.915C186.548 100.875 186.716 100.855 186.896 100.855C187.173 100.855 187.416 100.902 187.626 100.995C187.839 101.085 188.016 101.215 188.156 101.385C188.299 101.552 188.408 101.753 188.481 101.99C188.554 102.227 188.591 102.488 188.591 102.775V106H187.696V102.775C187.696 102.392 187.608 102.095 187.431 101.885C187.258 101.672 186.993 101.565 186.636 101.565C186.373 101.565 186.126 101.628 185.896 101.755C185.669 101.882 185.459 102.053 185.266 102.27V106H184.371V100.935H184.906C185.033 100.935 185.111 100.997 185.141 101.12L185.211 101.67Z" fill="#86909C"/>
<path d="M209.18 98.835V106H208.33V100.735C208.33 100.665 208.331 100.59 208.335 100.51C208.341 100.43 208.348 100.348 208.355 100.265L205.895 104.745C205.818 104.895 205.701 104.97 205.545 104.97H205.405C205.248 104.97 205.131 104.895 205.055 104.745L202.545 100.245C202.565 100.422 202.575 100.585 202.575 100.735V106H201.725V98.835H202.44C202.526 98.835 202.593 98.8433 202.64 98.86C202.686 98.8767 202.731 98.9233 202.775 99L205.25 103.41C205.29 103.49 205.328 103.573 205.365 103.66C205.405 103.747 205.441 103.835 205.475 103.925C205.508 103.835 205.543 103.747 205.58 103.66C205.616 103.57 205.656 103.485 205.7 103.405L208.13 99C208.17 98.9233 208.213 98.8767 208.26 98.86C208.31 98.8433 208.378 98.835 208.465 98.835H209.18ZM212.78 100.855C213.15 100.855 213.484 100.917 213.78 101.04C214.077 101.163 214.33 101.338 214.54 101.565C214.75 101.792 214.91 102.067 215.02 102.39C215.134 102.71 215.19 103.068 215.19 103.465C215.19 103.865 215.134 104.225 215.02 104.545C214.91 104.865 214.75 105.138 214.54 105.365C214.33 105.592 214.077 105.767 213.78 105.89C213.484 106.01 213.15 106.07 212.78 106.07C212.407 106.07 212.07 106.01 211.77 105.89C211.474 105.767 211.22 105.592 211.01 105.365C210.8 105.138 210.639 104.865 210.525 104.545C210.415 104.225 210.36 103.865 210.36 103.465C210.36 103.068 210.415 102.71 210.525 102.39C210.639 102.067 210.8 101.792 211.01 101.565C211.22 101.338 211.474 101.163 211.77 101.04C212.07 100.917 212.407 100.855 212.78 100.855ZM212.78 105.375C213.28 105.375 213.654 105.208 213.9 104.875C214.147 104.538 214.27 104.07 214.27 103.47C214.27 102.867 214.147 102.397 213.9 102.06C213.654 101.723 213.28 101.555 212.78 101.555C212.527 101.555 212.305 101.598 212.115 101.685C211.929 101.772 211.772 101.897 211.645 102.06C211.522 102.223 211.429 102.425 211.365 102.665C211.305 102.902 211.275 103.17 211.275 103.47C211.275 104.07 211.399 104.538 211.645 104.875C211.895 105.208 212.274 105.375 212.78 105.375ZM217.159 101.67C217.269 101.547 217.386 101.435 217.509 101.335C217.633 101.235 217.763 101.15 217.899 101.08C218.039 101.007 218.186 100.952 218.339 100.915C218.496 100.875 218.664 100.855 218.844 100.855C219.121 100.855 219.364 100.902 219.574 100.995C219.788 101.085 219.964 101.215 220.104 101.385C220.248 101.552 220.356 101.753 220.429 101.99C220.503 102.227 220.539 102.488 220.539 102.775V106H219.644V102.775C219.644 102.392 219.556 102.095 219.379 101.885C219.206 101.672 218.941 101.565 218.584 101.565C218.321 101.565 218.074 101.628 217.844 101.755C217.618 101.882 217.408 102.053 217.214 102.27V106H216.319V100.935H216.854C216.981 100.935 217.059 100.997 217.089 101.12L217.159 101.67Z" fill="#86909C"/>
<path d="M238.899 99.65H236.579V106H235.614V99.65H233.289V98.835H238.899V99.65ZM242.872 100.935V106H242.342C242.215 106 242.135 105.938 242.102 105.815L242.032 105.27C241.812 105.513 241.565 105.71 241.292 105.86C241.019 106.007 240.705 106.08 240.352 106.08C240.075 106.08 239.83 106.035 239.617 105.945C239.407 105.852 239.23 105.722 239.087 105.555C238.944 105.388 238.835 105.187 238.762 104.95C238.692 104.713 238.657 104.452 238.657 104.165V100.935H239.547V104.165C239.547 104.548 239.634 104.845 239.807 105.055C239.984 105.265 240.252 105.37 240.612 105.37C240.875 105.37 241.12 105.308 241.347 105.185C241.577 105.058 241.789 104.885 241.982 104.665V100.935H242.872ZM247.673 102.915C247.673 102.708 247.643 102.52 247.583 102.35C247.526 102.177 247.441 102.028 247.328 101.905C247.218 101.778 247.083 101.682 246.923 101.615C246.763 101.545 246.581 101.51 246.378 101.51C245.951 101.51 245.613 101.635 245.363 101.885C245.116 102.132 244.963 102.475 244.903 102.915H247.673ZM248.393 105.29C248.283 105.423 248.151 105.54 247.998 105.64C247.845 105.737 247.68 105.817 247.503 105.88C247.33 105.943 247.15 105.99 246.963 106.02C246.776 106.053 246.591 106.07 246.408 106.07C246.058 106.07 245.735 106.012 245.438 105.895C245.145 105.775 244.89 105.602 244.673 105.375C244.46 105.145 244.293 104.862 244.173 104.525C244.053 104.188 243.993 103.802 243.993 103.365C243.993 103.012 244.046 102.682 244.153 102.375C244.263 102.068 244.42 101.803 244.623 101.58C244.826 101.353 245.075 101.177 245.368 101.05C245.661 100.92 245.991 100.855 246.358 100.855C246.661 100.855 246.941 100.907 247.198 101.01C247.458 101.11 247.681 101.257 247.868 101.45C248.058 101.64 248.206 101.877 248.313 102.16C248.42 102.44 248.473 102.76 248.473 103.12C248.473 103.26 248.458 103.353 248.428 103.4C248.398 103.447 248.341 103.47 248.258 103.47H244.873C244.883 103.79 244.926 104.068 245.003 104.305C245.083 104.542 245.193 104.74 245.333 104.9C245.473 105.057 245.64 105.175 245.833 105.255C246.026 105.332 246.243 105.37 246.483 105.37C246.706 105.37 246.898 105.345 247.058 105.295C247.221 105.242 247.361 105.185 247.478 105.125C247.595 105.065 247.691 105.01 247.768 104.96C247.848 104.907 247.916 104.88 247.973 104.88C248.046 104.88 248.103 104.908 248.143 104.965L248.393 105.29Z" fill="#86909C"/>
<path d="M18 26.2091H259" stroke="#E5E6EB" stroke-dasharray="4 4"/>
<path d="M18 46.3978H259" stroke="#E5E6EB" stroke-dasharray="4 4"/>
<path d="M18 66.5865H259" stroke="#E5E6EB" stroke-dasharray="4 4"/>
<path d="M18 86.7753H259" stroke="#E5E6EB" stroke-dasharray="4 4"/>
<path d="M54.5918 87.4495L86.0933 57.9446L117.961 70.9521L149.829 30.3521L180.964 77.3364L212.832 75.6508L240 26" stroke="#165DFF" stroke-width="2" stroke-linejoin="round"/>
</svg>
