<svg width="14" height="15" viewBox="0 0 14 15" fill="none" xmlns="http://www.w3.org/2000/svg">
<path d="M6.82989 0.9375C3.09718 0.9375 0.0705872 3.87598 0.0705872 7.5C0.0705872 11.124 3.09718 14.0625 6.82989 14.0625C10.5626 14.0625 13.5892 11.124 13.5892 7.5C13.5892 3.87598 10.5626 0.9375 6.82989 0.9375ZM7.31269 10.6641C7.31269 10.7285 7.25838 10.7812 7.19199 10.7812H6.46778C6.4014 10.7812 6.34708 10.7285 6.34708 10.6641V6.67969C6.34708 6.61523 6.4014 6.5625 6.46778 6.5625H7.19199C7.25838 6.5625 7.31269 6.61523 7.31269 6.67969V10.6641ZM6.82989 5.625C6.64037 5.62124 6.45993 5.54551 6.32727 5.41406C6.19461 5.28261 6.12031 5.10591 6.12031 4.92188C6.12031 4.73784 6.19461 4.56114 6.32727 4.42969C6.45993 4.29824 6.64037 4.22251 6.82989 4.21875C7.0194 4.22251 7.19985 4.29824 7.3325 4.42969C7.46516 4.56114 7.53946 4.73784 7.53946 4.92188C7.53946 5.10591 7.46516 5.28261 7.3325 5.41406C7.19985 5.54551 7.0194 5.62124 6.82989 5.625Z" fill="#3C39B2"/>
</svg>
