<svg width="80" height="66" viewBox="0 0 80 66" fill="none" xmlns="http://www.w3.org/2000/svg">
<path d="M39.9793 26.7C43.5032 26.7 46.8827 25.3409 49.3745 22.9217C51.8663 20.5025 53.2661 17.2213 53.2661 13.8C53.2661 10.3787 51.8663 7.09757 49.3745 4.67835C46.8827 2.25913 43.5032 0.900024 39.9793 0.900024C36.4554 0.900024 33.0758 2.25913 30.584 4.67835C28.0923 7.09757 26.6924 10.3787 26.6924 13.8C26.6924 17.2213 28.0923 20.5025 30.584 22.9217C33.0758 25.3409 36.4554 26.7 39.9793 26.7ZM22.2635 22.4C22.2635 24.6809 21.3302 26.8683 19.669 28.4811C18.0079 30.094 15.7548 31 13.4056 31C11.0563 31 8.80326 30.094 7.14208 28.4811C5.4809 26.8683 4.54766 24.6809 4.54766 22.4C4.54766 20.1192 5.4809 17.9317 7.14208 16.3189C8.80326 14.7061 11.0563 13.8 13.4056 13.8C15.7548 13.8 18.0079 14.7061 19.669 16.3189C21.3302 17.9317 22.2635 20.1192 22.2635 22.4ZM2.2889 53.9018C1.53282 53.4846 0.966613 52.8059 0.703334 52.0012C-0.0770223 49.5473 -0.0852054 46.9232 0.679832 44.4647C1.44487 42.0063 2.9483 39.8255 4.99761 38.2017C7.04692 36.5778 9.54882 35.5848 12.1829 35.3498C14.817 35.1147 17.4634 35.6484 19.7833 36.8824C15.0161 41.4308 12.0323 47.4512 11.3461 53.9061C11.2442 54.8607 11.2841 55.8067 11.4568 56.7183C8.2244 56.447 5.09373 55.4852 2.2889 53.9018ZM68.5017 56.714C71.7338 56.444 74.8644 55.4837 77.6696 53.9018C78.424 53.4838 78.9886 52.8052 79.2508 52.0012C80.0324 49.5471 80.0415 46.9222 79.277 44.463C78.5125 42.0038 77.0091 39.8221 74.9596 38.1976C72.91 36.5731 70.4076 35.5797 67.7728 35.3446C65.1381 35.1095 62.491 35.6435 60.1708 36.8781C64.9422 41.4263 67.9293 47.4486 68.6169 53.9061C68.7155 54.8441 68.6768 55.7909 68.5017 56.7183V56.714ZM75.4109 22.4C75.4109 24.6809 74.4776 26.8683 72.8165 28.4811C71.1553 30.094 68.9022 31 66.553 31C64.2037 31 61.9507 30.094 60.2895 28.4811C58.6283 26.8683 57.6951 24.6809 57.6951 22.4C57.6951 20.1192 58.6283 17.9317 60.2895 16.3189C61.9507 14.7061 64.2037 13.8 66.553 13.8C68.9022 13.8 71.1553 14.7061 72.8165 16.3189C74.4776 17.9317 75.4109 20.1192 75.4109 22.4ZM19.1809 57.617C18.7441 57.2372 18.4055 56.763 18.1924 56.2326C17.9792 55.7023 17.8976 55.1307 17.9541 54.564C18.5174 49.2728 21.0811 44.3722 25.1496 40.8094C29.2181 37.2466 34.5025 35.2747 39.9815 35.2747C45.4604 35.2747 50.7448 37.2466 54.8133 40.8094C58.8818 44.3722 61.4455 49.2728 62.0089 54.564C62.0657 55.1307 61.9842 55.7024 61.7711 56.2328C61.558 56.7632 61.2191 57.2374 60.782 57.617C55.0873 62.6349 47.6696 65.4101 39.9793 65.4C32.2904 65.4094 24.8743 62.6343 19.1809 57.617Z" fill="#3C39B3"/>
</svg>
