<svg width="18" height="18" viewBox="0 0 18 18" fill="none" xmlns="http://www.w3.org/2000/svg">
<path d="M0.0625015 2.125C0.0625015 1.57799 0.2798 1.05339 0.666594 0.666592C1.05339 0.279799 1.57799 0.0625 2.125 0.0625H13.6406C14.2332 0.0625 14.8015 0.297907 15.2206 0.716933C15.6396 1.13596 15.875 1.70428 15.875 2.29688V2.9885C17.0768 3.41337 17.9375 4.55944 17.9375 5.90625V14.8438C17.9375 15.6643 17.6116 16.4512 17.0314 17.0314C16.4512 17.6116 15.6643 17.9375 14.8438 17.9375H3.15625C2.33574 17.9375 1.54883 17.6116 0.96864 17.0314C0.388449 16.4512 0.0625015 15.6643 0.0625015 14.8438V2.29688H0.0693765C0.0647271 2.2397 0.0624335 2.18236 0.0625015 2.125ZM14.5 2.29688C14.5 1.8225 14.115 1.4375 13.6406 1.4375H2.125C1.94267 1.4375 1.7678 1.50993 1.63887 1.63886C1.50993 1.7678 1.4375 1.94266 1.4375 2.125C1.4375 2.30734 1.50993 2.4822 1.63887 2.61114C1.7678 2.74007 1.94267 2.8125 2.125 2.8125H14.5V2.29688ZM12.4375 10.375C12.2552 10.375 12.0803 10.4474 11.9514 10.5764C11.8224 10.7053 11.75 10.8802 11.75 11.0625C11.75 11.2448 11.8224 11.4197 11.9514 11.5486C12.0803 11.6776 12.2552 11.75 12.4375 11.75H14.5C14.6823 11.75 14.8572 11.6776 14.9861 11.5486C15.1151 11.4197 15.1875 11.2448 15.1875 11.0625C15.1875 10.8802 15.1151 10.7053 14.9861 10.5764C14.8572 10.4474 14.6823 10.375 14.5 10.375H12.4375Z" fill="#FC6B21"/>
</svg>
